<?xml version="1.0" encoding="UTF-8" standalone="no"?>
<!DOCTYPE svg PUBLIC "-//W3C//DTD SVG 1.1//EN"
 "http://www.w3.org/Graphics/SVG/1.1/DTD/svg11.dtd">
<!-- Generated by graphviz version 2.47.2 (20210527.0053)
 -->
<!-- Title: G Pages: 1 -->
<svg width="1163pt" height="92pt"
 viewBox="0.00 0.00 1163.00 92.00" xmlns="http://www.w3.org/2000/svg" xmlns:xlink="http://www.w3.org/1999/xlink">
<g id="graph0" class="graph" transform="scale(1 1) rotate(0) translate(4 88)">
<title>G</title>
<polygon fill="white" stroke="transparent" points="-4,4 -4,-88 1159,-88 1159,4 -4,4"/>
<!-- Inicio de la cola -->
<g id="node1" class="node">
<title>Inicio de la cola</title>
<polygon fill="none" stroke="black" points="105,-60 0,-60 0,-24 105,-24 105,-60"/>
<text text-anchor="middle" x="52.5" y="-38.3" font-family="Times New Roman,serif" font-size="14.00">Inicio de la cola</text>
</g>
<!-- 0xa67288 -->
<g id="node2" class="node">
<title>0xa67288</title>
<polygon fill="none" stroke="black" points="323,-84 141,-84 141,0 323,0 323,-84"/>
<text text-anchor="middle" x="232" y="-68.8" font-family="Times New Roman,serif" font-size="14.00"> Id: 1</text>
<text text-anchor="middle" x="232" y="-53.8" font-family="Times New Roman,serif" font-size="14.00">Tipo: Estudiante</text>
<text text-anchor="middle" x="232" y="-38.8" font-family="Times New Roman,serif" font-size="14.00">Descripcion: Linea numero: 2</text>
<text text-anchor="middle" x="232" y="-23.8" font-family="Times New Roman,serif" font-size="14.00">*Carnet invalido: 2017010865</text>
</g>
<!-- Inicio de la cola&#45;&gt;0xa67288 -->
<g id="edge1" class="edge">
<title>Inicio de la cola&#45;&gt;0xa67288</title>
<path fill="none" stroke="black" d="M115.48,-42C123.66,-42 132.18,-42 140.71,-42"/>
<polygon fill="black" stroke="black" points="115.32,-38.5 105.32,-42 115.32,-45.5 115.32,-38.5"/>
</g>
<!-- 0xa676a8 -->
<g id="node3" class="node">
<title>0xa676a8</title>
<polygon fill="none" stroke="black" points="546,-84 359,-84 359,0 546,0 546,-84"/>
<text text-anchor="middle" x="452.5" y="-68.8" font-family="Times New Roman,serif" font-size="14.00"> Id: 2</text>
<text text-anchor="middle" x="452.5" y="-53.8" font-family="Times New Roman,serif" font-size="14.00">Tipo: Estudiante</text>
<text text-anchor="middle" x="452.5" y="-38.8" font-family="Times New Roman,serif" font-size="14.00">Descripcion: Linea numero: 10</text>
<text text-anchor="middle" x="452.5" y="-23.8" font-family="Times New Roman,serif" font-size="14.00">*Carnet invalido: 2016114464</text>
</g>
<!-- 0xa67288&#45;&gt;0xa676a8 -->
<g id="edge2" class="edge">
<title>0xa67288&#45;&gt;0xa676a8</title>
<path fill="none" stroke="black" d="M333.39,-42C341.84,-42 350.36,-42 358.75,-42"/>
<polygon fill="black" stroke="black" points="333.13,-38.5 323.13,-42 333.13,-45.5 333.13,-38.5"/>
</g>
<!-- 0xa60500 -->
<g id="node4" class="node">
<title>0xa60500</title>
<polygon fill="none" stroke="black" points="782,-84 582,-84 582,0 782,0 782,-84"/>
<text text-anchor="middle" x="682" y="-68.8" font-family="Times New Roman,serif" font-size="14.00"> Id: 3</text>
<text text-anchor="middle" x="682" y="-53.8" font-family="Times New Roman,serif" font-size="14.00">Tipo: Tarea</text>
<text text-anchor="middle" x="682" y="-38.8" font-family="Times New Roman,serif" font-size="14.00">Descripcion: Linea numero: 5</text>
<text text-anchor="middle" x="682" y="-23.8" font-family="Times New Roman,serif" font-size="14.00">*No existe el carnet: 2017041865</text>
</g>
<!-- 0xa676a8&#45;&gt;0xa60500 -->
<g id="edge3" class="edge">
<title>0xa676a8&#45;&gt;0xa60500</title>
<path fill="none" stroke="black" d="M556.06,-42C564.65,-42 573.32,-42 581.88,-42"/>
<polygon fill="black" stroke="black" points="556.03,-38.5 546.03,-42 556.03,-45.5 556.03,-38.5"/>
</g>
<!-- 0xa6be30 -->
<g id="node5" class="node">
<title>0xa6be30</title>
<polygon fill="none" stroke="black" points="1018,-84 818,-84 818,0 1018,0 1018,-84"/>
<text text-anchor="middle" x="918" y="-68.8" font-family="Times New Roman,serif" font-size="14.00"> Id: 4</text>
<text text-anchor="middle" x="918" y="-53.8" font-family="Times New Roman,serif" font-size="14.00">Tipo: Tarea</text>
<text text-anchor="middle" x="918" y="-38.8" font-family="Times New Roman,serif" font-size="14.00">Descripcion: Linea numero: 9</text>
<text text-anchor="middle" x="918" y="-23.8" font-family="Times New Roman,serif" font-size="14.00">*No existe el carnet: 2019014255</text>
</g>
<!-- 0xa60500&#45;&gt;0xa6be30 -->
<g id="edge4" class="edge">
<title>0xa60500&#45;&gt;0xa6be30</title>
<path fill="none" stroke="black" d="M792.27,-42C800.85,-42 809.48,-42 817.98,-42"/>
<polygon fill="black" stroke="black" points="792.24,-38.5 782.24,-42 792.24,-45.5 792.24,-38.5"/>
</g>
<!-- Final de la cola -->
<g id="node6" class="node">
<title>Final de la cola</title>
<polygon fill="none" stroke="black" points="1155,-60 1054,-60 1054,-24 1155,-24 1155,-60"/>
<text text-anchor="middle" x="1104.5" y="-38.3" font-family="Times New Roman,serif" font-size="14.00">Final de la cola</text>
</g>
<!-- 0xa6be30&#45;&gt;Final de la cola -->
<g id="edge5" class="edge">
<title>0xa6be30&#45;&gt;Final de la cola</title>
<path fill="none" stroke="black" d="M1028.04,-42C1036.88,-42 1045.5,-42 1053.56,-42"/>
<polygon fill="black" stroke="black" points="1028,-38.5 1018,-42 1028,-45.5 1028,-38.5"/>
</g>
</g>
</svg>
