<?xml version="1.0" encoding="UTF-8" standalone="no"?>
<!DOCTYPE svg PUBLIC "-//W3C//DTD SVG 1.1//EN"
 "http://www.w3.org/Graphics/SVG/1.1/DTD/svg11.dtd">
<!-- Generated by graphviz version 2.47.2 (20210527.0053)
 -->
<!-- Title: G Pages: 1 -->
<svg width="1334pt" height="122pt"
 viewBox="0.00 0.00 1334.00 122.00" xmlns="http://www.w3.org/2000/svg" xmlns:xlink="http://www.w3.org/1999/xlink">
<g id="graph0" class="graph" transform="scale(1 1) rotate(0) translate(4 118)">
<title>G</title>
<polygon fill="white" stroke="transparent" points="-4,4 -4,-118 1330,-118 1330,4 -4,4"/>
<!-- Inicio de la cola -->
<g id="node1" class="node">
<title>Inicio de la cola</title>
<polygon fill="none" stroke="black" points="105,-75 0,-75 0,-39 105,-39 105,-75"/>
<text text-anchor="middle" x="52.5" y="-53.3" font-family="Times New Roman,serif" font-size="14.00">Inicio de la cola</text>
</g>
<!-- 0x9dae18 -->
<g id="node2" class="node">
<title>0x9dae18</title>
<polygon fill="none" stroke="black" points="323,-99 141,-99 141,-15 323,-15 323,-99"/>
<text text-anchor="middle" x="232" y="-83.8" font-family="Times New Roman,serif" font-size="14.00"> Id: 1</text>
<text text-anchor="middle" x="232" y="-68.8" font-family="Times New Roman,serif" font-size="14.00">Tipo: Estudiante</text>
<text text-anchor="middle" x="232" y="-53.8" font-family="Times New Roman,serif" font-size="14.00">Descripcion: Linea numero: 4</text>
<text text-anchor="middle" x="232" y="-38.8" font-family="Times New Roman,serif" font-size="14.00">*Carnet invalido: 2018223186</text>
</g>
<!-- Inicio de la cola&#45;&gt;0x9dae18 -->
<g id="edge1" class="edge">
<title>Inicio de la cola&#45;&gt;0x9dae18</title>
<path fill="none" stroke="black" d="M115.48,-57C123.66,-57 132.18,-57 140.71,-57"/>
<polygon fill="black" stroke="black" points="115.32,-53.5 105.32,-57 115.32,-60.5 115.32,-53.5"/>
</g>
<!-- 0x9dae60 -->
<g id="node3" class="node">
<title>0x9dae60</title>
<polygon fill="none" stroke="black" points="553,-99 359,-99 359,-15 553,-15 553,-99"/>
<text text-anchor="middle" x="456" y="-83.8" font-family="Times New Roman,serif" font-size="14.00"> Id: 2</text>
<text text-anchor="middle" x="456" y="-68.8" font-family="Times New Roman,serif" font-size="14.00">Tipo: Estudiante</text>
<text text-anchor="middle" x="456" y="-53.8" font-family="Times New Roman,serif" font-size="14.00">Descripcion: Linea numero: 8</text>
<text text-anchor="middle" x="456" y="-38.8" font-family="Times New Roman,serif" font-size="14.00">*DPI invalido: 47278315315575</text>
</g>
<!-- 0x9dae18&#45;&gt;0x9dae60 -->
<g id="edge2" class="edge">
<title>0x9dae18&#45;&gt;0x9dae60</title>
<path fill="none" stroke="black" d="M333.56,-57C342.03,-57 350.57,-57 359,-57"/>
<polygon fill="black" stroke="black" points="333.3,-53.5 323.3,-57 333.3,-60.5 333.3,-53.5"/>
</g>
<!-- 0x9dae78 -->
<g id="node4" class="node">
<title>0x9dae78</title>
<polygon fill="none" stroke="black" points="863,-99 589,-99 589,-15 863,-15 863,-99"/>
<text text-anchor="middle" x="726" y="-83.8" font-family="Times New Roman,serif" font-size="14.00"> Id: 3</text>
<text text-anchor="middle" x="726" y="-68.8" font-family="Times New Roman,serif" font-size="14.00">Tipo: Estudiante</text>
<text text-anchor="middle" x="726" y="-53.8" font-family="Times New Roman,serif" font-size="14.00">Descripcion: Linea numero: 10</text>
<text text-anchor="middle" x="726" y="-38.8" font-family="Times New Roman,serif" font-size="14.00">*Correo invalido: esperanza.meza41hotmail.es</text>
</g>
<!-- 0x9dae60&#45;&gt;0x9dae78 -->
<g id="edge3" class="edge">
<title>0x9dae60&#45;&gt;0x9dae78</title>
<path fill="none" stroke="black" d="M563.49,-57C571.85,-57 580.36,-57 588.88,-57"/>
<polygon fill="black" stroke="black" points="563.38,-53.5 553.38,-57 563.38,-60.5 563.38,-53.5"/>
</g>
<!-- 0x9dae48 -->
<g id="node5" class="node">
<title>0x9dae48</title>
<polygon fill="none" stroke="black" points="1189,-114 899,-114 899,0 1189,0 1189,-114"/>
<text text-anchor="middle" x="1044" y="-98.8" font-family="Times New Roman,serif" font-size="14.00"> Id: 4</text>
<text text-anchor="middle" x="1044" y="-83.8" font-family="Times New Roman,serif" font-size="14.00">Tipo: Tarea</text>
<text text-anchor="middle" x="1044" y="-68.8" font-family="Times New Roman,serif" font-size="14.00">Descripcion: Linea numero8</text>
<text text-anchor="middle" x="1044" y="-53.8" font-family="Times New Roman,serif" font-size="14.00">*No existe el carnet: 201501786</text>
<text text-anchor="middle" x="1044" y="-38.8" font-family="Times New Roman,serif" font-size="14.00">*Verificar que el dia, mes y hora esten dentro del</text>
<text text-anchor="middle" x="1044" y="-23.8" font-family="Times New Roman,serif" font-size="14.00"> rango establecido. (Dia: 21,Mes: 10 ,Hora 7)</text>
</g>
<!-- 0x9dae78&#45;&gt;0x9dae48 -->
<g id="edge4" class="edge">
<title>0x9dae78&#45;&gt;0x9dae48</title>
<path fill="none" stroke="black" d="M873.55,-57C881.98,-57 890.44,-57 898.86,-57"/>
<polygon fill="black" stroke="black" points="873.31,-53.5 863.31,-57 873.31,-60.5 873.31,-53.5"/>
</g>
<!-- Final de la cola -->
<g id="node6" class="node">
<title>Final de la cola</title>
<polygon fill="none" stroke="black" points="1326,-75 1225,-75 1225,-39 1326,-39 1326,-75"/>
<text text-anchor="middle" x="1275.5" y="-53.3" font-family="Times New Roman,serif" font-size="14.00">Final de la cola</text>
</g>
<!-- 0x9dae48&#45;&gt;Final de la cola -->
<g id="edge5" class="edge">
<title>0x9dae48&#45;&gt;Final de la cola</title>
<path fill="none" stroke="black" d="M1199.26,-57C1208.18,-57 1216.74,-57 1224.68,-57"/>
<polygon fill="black" stroke="black" points="1199.04,-53.5 1189.04,-57 1199.04,-60.5 1199.04,-53.5"/>
</g>
</g>
</svg>
