<?xml version="1.0" encoding="UTF-8" standalone="no"?>
<!DOCTYPE svg PUBLIC "-//W3C//DTD SVG 1.1//EN"
 "http://www.w3.org/Graphics/SVG/1.1/DTD/svg11.dtd">
<!-- Generated by graphviz version 2.47.2 (20210527.0053)
 -->
<!-- Title: G Pages: 1 -->
<svg width="2798pt" height="182pt"
 viewBox="0.00 0.00 2798.00 182.00" xmlns="http://www.w3.org/2000/svg" xmlns:xlink="http://www.w3.org/1999/xlink">
<g id="graph0" class="graph" transform="scale(1 1) rotate(0) translate(4 178)">
<title>G</title>
<polygon fill="white" stroke="transparent" points="-4,4 -4,-178 2794,-178 2794,4 -4,4"/>
<!-- 0x11713a0 -->
<g id="node1" class="node">
<title>0x11713a0</title>
<polygon fill="none" stroke="black" points="251,-128 0,-128 0,0 251,0 251,-128"/>
<text text-anchor="middle" x="125.5" y="-112.8" font-family="Times New Roman,serif" font-size="14.00"> Carnet: 201701086</text>
<text text-anchor="middle" x="125.5" y="-97.8" font-family="Times New Roman,serif" font-size="14.00">DPI: 3502451230508</text>
<text text-anchor="middle" x="125.5" y="-82.8" font-family="Times New Roman,serif" font-size="14.00">Nombre: Tomas ixen</text>
<text text-anchor="middle" x="125.5" y="-67.8" font-family="Times New Roman,serif" font-size="14.00">Carrera: Ingeniería en Ciencias y Sistemas</text>
<text text-anchor="middle" x="125.5" y="-52.8" font-family="Times New Roman,serif" font-size="14.00">Correo: nicols36@hotmail.com</text>
<text text-anchor="middle" x="125.5" y="-37.8" font-family="Times New Roman,serif" font-size="14.00">Pass: roxodiciqi</text>
<text text-anchor="middle" x="125.5" y="-22.8" font-family="Times New Roman,serif" font-size="14.00">Creditos: 205</text>
<text text-anchor="middle" x="125.5" y="-7.8" font-family="Times New Roman,serif" font-size="14.00">Edad: 21</text>
</g>
<!-- 0x11779c8 -->
<g id="node2" class="node">
<title>0x11779c8</title>
<polygon fill="none" stroke="black" points="521,-174 287,-174 287,-46 521,-46 521,-174"/>
<text text-anchor="middle" x="404" y="-158.8" font-family="Times New Roman,serif" font-size="14.00"> Carnet: 201800524</text>
<text text-anchor="middle" x="404" y="-143.8" font-family="Times New Roman,serif" font-size="14.00">DPI: 7249529279753</text>
<text text-anchor="middle" x="404" y="-128.8" font-family="Times New Roman,serif" font-size="14.00">Nombre: Juan Curiel</text>
<text text-anchor="middle" x="404" y="-113.8" font-family="Times New Roman,serif" font-size="14.00">Carrera: Ingeniería Industrial</text>
<text text-anchor="middle" x="404" y="-98.8" font-family="Times New Roman,serif" font-size="14.00">Correo: jernimo.caballero@yahoo.com</text>
<text text-anchor="middle" x="404" y="-83.8" font-family="Times New Roman,serif" font-size="14.00">Pass: zanolexima</text>
<text text-anchor="middle" x="404" y="-68.8" font-family="Times New Roman,serif" font-size="14.00">Creditos: 245</text>
<text text-anchor="middle" x="404" y="-53.8" font-family="Times New Roman,serif" font-size="14.00">Edad: 24</text>
</g>
<!-- 0x11713a0&#45;&gt;0x11779c8 -->
<g id="edge1" class="edge">
<title>0x11713a0&#45;&gt;0x11779c8</title>
<path fill="none" stroke="black" d="M261.33,-86.43C266.36,-87.27 271.39,-88.1 276.4,-88.94"/>
<polygon fill="black" stroke="black" points="261.84,-82.97 251.4,-84.78 260.69,-89.87 261.84,-82.97"/>
<polygon fill="black" stroke="black" points="276.22,-92.46 286.65,-90.64 277.36,-85.55 276.22,-92.46"/>
</g>
<!-- 0x1177b00 -->
<g id="node3" class="node">
<title>0x1177b00</title>
<polygon fill="none" stroke="black" points="800,-174 557,-174 557,-46 800,-46 800,-174"/>
<text text-anchor="middle" x="678.5" y="-158.8" font-family="Times New Roman,serif" font-size="14.00"> Carnet: 201821238</text>
<text text-anchor="middle" x="678.5" y="-143.8" font-family="Times New Roman,serif" font-size="14.00">DPI: 9298434863898</text>
<text text-anchor="middle" x="678.5" y="-128.8" font-family="Times New Roman,serif" font-size="14.00">Nombre: nombre modificadoooo</text>
<text text-anchor="middle" x="678.5" y="-113.8" font-family="Times New Roman,serif" font-size="14.00">Carrera: Ingeniería Civil</text>
<text text-anchor="middle" x="678.5" y="-98.8" font-family="Times New Roman,serif" font-size="14.00">Correo: carolinaelizondo85@yahoo.com</text>
<text text-anchor="middle" x="678.5" y="-83.8" font-family="Times New Roman,serif" font-size="14.00">Pass: toqelijanu</text>
<text text-anchor="middle" x="678.5" y="-68.8" font-family="Times New Roman,serif" font-size="14.00">Creditos: 95</text>
<text text-anchor="middle" x="678.5" y="-53.8" font-family="Times New Roman,serif" font-size="14.00">Edad: 19</text>
</g>
<!-- 0x11779c8&#45;&gt;0x1177b00 -->
<g id="edge2" class="edge">
<title>0x11779c8&#45;&gt;0x1177b00</title>
<path fill="none" stroke="black" d="M531.56,-110C536.54,-110 541.54,-110 546.53,-110"/>
<polygon fill="black" stroke="black" points="531.35,-106.5 521.35,-110 531.35,-113.5 531.35,-106.5"/>
<polygon fill="black" stroke="black" points="546.75,-113.5 556.75,-110 546.75,-106.5 546.75,-113.5"/>
</g>
<!-- 0x1177bf8 -->
<g id="node4" class="node">
<title>0x1177bf8</title>
<polygon fill="none" stroke="black" points="1036,-174 836,-174 836,-46 1036,-46 1036,-174"/>
<text text-anchor="middle" x="936" y="-158.8" font-family="Times New Roman,serif" font-size="14.00"> Carnet: 201901425</text>
<text text-anchor="middle" x="936" y="-143.8" font-family="Times New Roman,serif" font-size="14.00">DPI: 4131766125532</text>
<text text-anchor="middle" x="936" y="-128.8" font-family="Times New Roman,serif" font-size="14.00">Nombre: Bernardo Hinojosa</text>
<text text-anchor="middle" x="936" y="-113.8" font-family="Times New Roman,serif" font-size="14.00">Carrera: Ingeniería Mecánica</text>
<text text-anchor="middle" x="936" y="-98.8" font-family="Times New Roman,serif" font-size="14.00">Correo: alfonso03@hotmail.com</text>
<text text-anchor="middle" x="936" y="-83.8" font-family="Times New Roman,serif" font-size="14.00">Pass: wosopumano</text>
<text text-anchor="middle" x="936" y="-68.8" font-family="Times New Roman,serif" font-size="14.00">Creditos: 100</text>
<text text-anchor="middle" x="936" y="-53.8" font-family="Times New Roman,serif" font-size="14.00">Edad: 20</text>
</g>
<!-- 0x1177b00&#45;&gt;0x1177bf8 -->
<g id="edge3" class="edge">
<title>0x1177b00&#45;&gt;0x1177bf8</title>
<path fill="none" stroke="black" d="M810.18,-110C815.26,-110 820.33,-110 825.37,-110"/>
<polygon fill="black" stroke="black" points="810.14,-106.5 800.14,-110 810.14,-113.5 810.14,-106.5"/>
<polygon fill="black" stroke="black" points="825.64,-113.5 835.64,-110 825.64,-106.5 825.64,-113.5"/>
</g>
<!-- 0x1177370 -->
<g id="node5" class="node">
<title>0x1177370</title>
<polygon fill="none" stroke="black" points="1287,-174 1072,-174 1072,-46 1287,-46 1287,-174"/>
<text text-anchor="middle" x="1179.5" y="-158.8" font-family="Times New Roman,serif" font-size="14.00"> Carnet: 201503186</text>
<text text-anchor="middle" x="1179.5" y="-143.8" font-family="Times New Roman,serif" font-size="14.00">DPI: 8549191766348</text>
<text text-anchor="middle" x="1179.5" y="-128.8" font-family="Times New Roman,serif" font-size="14.00">Nombre: Manuel Manzanares</text>
<text text-anchor="middle" x="1179.5" y="-113.8" font-family="Times New Roman,serif" font-size="14.00">Carrera: Ingeniería Eléctrica</text>
<text text-anchor="middle" x="1179.5" y="-98.8" font-family="Times New Roman,serif" font-size="14.00">Correo: benitoarmas92@gmail.com</text>
<text text-anchor="middle" x="1179.5" y="-83.8" font-family="Times New Roman,serif" font-size="14.00">Pass: rejumudore</text>
<text text-anchor="middle" x="1179.5" y="-68.8" font-family="Times New Roman,serif" font-size="14.00">Creditos: 226</text>
<text text-anchor="middle" x="1179.5" y="-53.8" font-family="Times New Roman,serif" font-size="14.00">Edad: 24</text>
</g>
<!-- 0x1177bf8&#45;&gt;0x1177370 -->
<g id="edge4" class="edge">
<title>0x1177bf8&#45;&gt;0x1177370</title>
<path fill="none" stroke="black" d="M1046.49,-110C1051.48,-110 1056.5,-110 1061.51,-110"/>
<polygon fill="black" stroke="black" points="1046.27,-106.5 1036.27,-110 1046.27,-113.5 1046.27,-106.5"/>
<polygon fill="black" stroke="black" points="1061.77,-113.5 1071.77,-110 1061.77,-106.5 1061.77,-113.5"/>
</g>
<!-- 0x1177c58 -->
<g id="node6" class="node">
<title>0x1177c58</title>
<polygon fill="none" stroke="black" points="1541,-174 1323,-174 1323,-46 1541,-46 1541,-174"/>
<text text-anchor="middle" x="1432" y="-158.8" font-family="Times New Roman,serif" font-size="14.00"> Carnet: 201123146</text>
<text text-anchor="middle" x="1432" y="-143.8" font-family="Times New Roman,serif" font-size="14.00">DPI: 9216636196552</text>
<text text-anchor="middle" x="1432" y="-128.8" font-family="Times New Roman,serif" font-size="14.00">Nombre: Julia Corona</text>
<text text-anchor="middle" x="1432" y="-113.8" font-family="Times New Roman,serif" font-size="14.00">Carrera: Ingeniería Electrónica</text>
<text text-anchor="middle" x="1432" y="-98.8" font-family="Times New Roman,serif" font-size="14.00">Correo: ngela.solorio86@yahoo.org</text>
<text text-anchor="middle" x="1432" y="-83.8" font-family="Times New Roman,serif" font-size="14.00">Pass: xojobavuji</text>
<text text-anchor="middle" x="1432" y="-68.8" font-family="Times New Roman,serif" font-size="14.00">Creditos: 237</text>
<text text-anchor="middle" x="1432" y="-53.8" font-family="Times New Roman,serif" font-size="14.00">Edad: 26</text>
</g>
<!-- 0x1177370&#45;&gt;0x1177c58 -->
<g id="edge5" class="edge">
<title>0x1177370&#45;&gt;0x1177c58</title>
<path fill="none" stroke="black" d="M1297.14,-110C1302.37,-110 1307.63,-110 1312.86,-110"/>
<polygon fill="black" stroke="black" points="1297.1,-106.5 1287.1,-110 1297.1,-113.5 1297.1,-106.5"/>
<polygon fill="black" stroke="black" points="1312.9,-113.5 1322.9,-110 1312.9,-106.5 1312.9,-113.5"/>
</g>
<!-- 0x1177c78 -->
<g id="node7" class="node">
<title>0x1177c78</title>
<polygon fill="none" stroke="black" points="1826,-174 1577,-174 1577,-46 1826,-46 1826,-174"/>
<text text-anchor="middle" x="1701.5" y="-158.8" font-family="Times New Roman,serif" font-size="14.00"> Carnet: 201704186</text>
<text text-anchor="middle" x="1701.5" y="-143.8" font-family="Times New Roman,serif" font-size="14.00">DPI: 4727831531555</text>
<text text-anchor="middle" x="1701.5" y="-128.8" font-family="Times New Roman,serif" font-size="14.00">Nombre: Berta Carrasco</text>
<text text-anchor="middle" x="1701.5" y="-113.8" font-family="Times New Roman,serif" font-size="14.00">Carrera: Ingeniería Ambiental</text>
<text text-anchor="middle" x="1701.5" y="-98.8" font-family="Times New Roman,serif" font-size="14.00">Correo: carmen.montenegro@yahoo.com</text>
<text text-anchor="middle" x="1701.5" y="-83.8" font-family="Times New Roman,serif" font-size="14.00">Pass: gayahizatu</text>
<text text-anchor="middle" x="1701.5" y="-68.8" font-family="Times New Roman,serif" font-size="14.00">Creditos: 210</text>
<text text-anchor="middle" x="1701.5" y="-53.8" font-family="Times New Roman,serif" font-size="14.00">Edad: 22</text>
</g>
<!-- 0x1177c58&#45;&gt;0x1177c78 -->
<g id="edge6" class="edge">
<title>0x1177c58&#45;&gt;0x1177c78</title>
<path fill="none" stroke="black" d="M1551.28,-110C1556.29,-110 1561.33,-110 1566.37,-110"/>
<polygon fill="black" stroke="black" points="1551.03,-106.5 1541.03,-110 1551.03,-113.5 1551.03,-106.5"/>
<polygon fill="black" stroke="black" points="1566.71,-113.5 1576.71,-110 1566.71,-106.5 1566.71,-113.5"/>
</g>
<!-- 0x1177608 -->
<g id="node8" class="node">
<title>0x1177608</title>
<polygon fill="none" stroke="black" points="2049,-174 1862,-174 1862,-46 2049,-46 2049,-174"/>
<text text-anchor="middle" x="1955.5" y="-158.8" font-family="Times New Roman,serif" font-size="14.00"> Carnet: 202000786</text>
<text text-anchor="middle" x="1955.5" y="-143.8" font-family="Times New Roman,serif" font-size="14.00">DPI: 7382344774121</text>
<text text-anchor="middle" x="1955.5" y="-128.8" font-family="Times New Roman,serif" font-size="14.00">Nombre: Lola Delapaz</text>
<text text-anchor="middle" x="1955.5" y="-113.8" font-family="Times New Roman,serif" font-size="14.00">Carrera: Ingeniería Química</text>
<text text-anchor="middle" x="1955.5" y="-98.8" font-family="Times New Roman,serif" font-size="14.00">Correo: adriana56@gmail.com</text>
<text text-anchor="middle" x="1955.5" y="-83.8" font-family="Times New Roman,serif" font-size="14.00">Pass: hujocikimi</text>
<text text-anchor="middle" x="1955.5" y="-68.8" font-family="Times New Roman,serif" font-size="14.00">Creditos: 45</text>
<text text-anchor="middle" x="1955.5" y="-53.8" font-family="Times New Roman,serif" font-size="14.00">Edad: 19</text>
</g>
<!-- 0x1177c78&#45;&gt;0x1177608 -->
<g id="edge7" class="edge">
<title>0x1177c78&#45;&gt;0x1177608</title>
<path fill="none" stroke="black" d="M1836.36,-110C1841.46,-110 1846.53,-110 1851.55,-110"/>
<polygon fill="black" stroke="black" points="1836.29,-106.5 1826.29,-110 1836.29,-113.5 1836.29,-106.5"/>
<polygon fill="black" stroke="black" points="1851.78,-113.5 1861.78,-110 1851.78,-106.5 1851.78,-113.5"/>
</g>
<!-- 0x1177668 -->
<g id="node9" class="node">
<title>0x1177668</title>
<polygon fill="none" stroke="black" points="2318,-174 2085,-174 2085,-46 2318,-46 2318,-174"/>
<text text-anchor="middle" x="2201.5" y="-158.8" font-family="Times New Roman,serif" font-size="14.00"> Carnet: 201611446</text>
<text text-anchor="middle" x="2201.5" y="-143.8" font-family="Times New Roman,serif" font-size="14.00">DPI: 2511893949443</text>
<text text-anchor="middle" x="2201.5" y="-128.8" font-family="Times New Roman,serif" font-size="14.00">Nombre: Sonia Arteaga</text>
<text text-anchor="middle" x="2201.5" y="-113.8" font-family="Times New Roman,serif" font-size="14.00">Carrera: Ingeniería Mecánica Industrial</text>
<text text-anchor="middle" x="2201.5" y="-98.8" font-family="Times New Roman,serif" font-size="14.00">Correo: esperanza.meza41@hotmail.es</text>
<text text-anchor="middle" x="2201.5" y="-83.8" font-family="Times New Roman,serif" font-size="14.00">Pass: rezutafila</text>
<text text-anchor="middle" x="2201.5" y="-68.8" font-family="Times New Roman,serif" font-size="14.00">Creditos: 195</text>
<text text-anchor="middle" x="2201.5" y="-53.8" font-family="Times New Roman,serif" font-size="14.00">Edad: 23</text>
</g>
<!-- 0x1177608&#45;&gt;0x1177668 -->
<g id="edge8" class="edge">
<title>0x1177608&#45;&gt;0x1177668</title>
<path fill="none" stroke="black" d="M2059.35,-110C2064.51,-110 2069.72,-110 2074.94,-110"/>
<polygon fill="black" stroke="black" points="2059.09,-106.5 2049.09,-110 2059.09,-113.5 2059.09,-106.5"/>
<polygon fill="black" stroke="black" points="2074.97,-113.5 2084.97,-110 2074.97,-106.5 2074.97,-113.5"/>
</g>
<!-- 0x117b5c0 -->
<g id="node10" class="node">
<title>0x117b5c0</title>
<polygon fill="none" stroke="black" points="2584,-174 2354,-174 2354,-46 2584,-46 2584,-174"/>
<text text-anchor="middle" x="2469" y="-158.8" font-family="Times New Roman,serif" font-size="14.00"> Carnet: 202021213</text>
<text text-anchor="middle" x="2469" y="-143.8" font-family="Times New Roman,serif" font-size="14.00">DPI: 3423442386382</text>
<text text-anchor="middle" x="2469" y="-128.8" font-family="Times New Roman,serif" font-size="14.00">Nombre: Benjamín Asencio</text>
<text text-anchor="middle" x="2469" y="-113.8" font-family="Times New Roman,serif" font-size="14.00">Carrera: Ingeniería Mecánica Eléctrica</text>
<text text-anchor="middle" x="2469" y="-98.8" font-family="Times New Roman,serif" font-size="14.00">Correo: horacio.tejada15@yahoo.com</text>
<text text-anchor="middle" x="2469" y="-83.8" font-family="Times New Roman,serif" font-size="14.00">Pass: runoqozepo</text>
<text text-anchor="middle" x="2469" y="-68.8" font-family="Times New Roman,serif" font-size="14.00">Creditos: 117</text>
<text text-anchor="middle" x="2469" y="-53.8" font-family="Times New Roman,serif" font-size="14.00">Edad: 20</text>
</g>
<!-- 0x1177668&#45;&gt;0x117b5c0 -->
<g id="edge9" class="edge">
<title>0x1177668&#45;&gt;0x117b5c0</title>
<path fill="none" stroke="black" d="M2328.24,-110C2333.47,-110 2338.72,-110 2343.95,-110"/>
<polygon fill="black" stroke="black" points="2328.18,-106.5 2318.18,-110 2328.18,-113.5 2328.18,-106.5"/>
<polygon fill="black" stroke="black" points="2343.98,-113.5 2353.98,-110 2343.98,-106.5 2343.98,-113.5"/>
</g>
<!-- 0x117b770 -->
<g id="node11" class="node">
<title>0x117b770</title>
<polygon fill="none" stroke="black" points="2790,-128 2620,-128 2620,0 2790,0 2790,-128"/>
<text text-anchor="middle" x="2705" y="-112.8" font-family="Times New Roman,serif" font-size="14.00">Carnet: 201800525</text>
<text text-anchor="middle" x="2705" y="-97.8" font-family="Times New Roman,serif" font-size="14.00">DPI: 1122112211221</text>
<text text-anchor="middle" x="2705" y="-82.8" font-family="Times New Roman,serif" font-size="14.00">Nombre: tomass rucuch</text>
<text text-anchor="middle" x="2705" y="-67.8" font-family="Times New Roman,serif" font-size="14.00">Carrera: ciencias y sistemas</text>
<text text-anchor="middle" x="2705" y="-52.8" font-family="Times New Roman,serif" font-size="14.00">Correo: edui@ffm.com</text>
<text text-anchor="middle" x="2705" y="-37.8" font-family="Times New Roman,serif" font-size="14.00">Pass: asdasd</text>
<text text-anchor="middle" x="2705" y="-22.8" font-family="Times New Roman,serif" font-size="14.00">Creditos: 23</text>
<text text-anchor="middle" x="2705" y="-7.8" font-family="Times New Roman,serif" font-size="14.00">Edad: 33</text>
</g>
<!-- 0x117b5c0&#45;&gt;0x117b770 -->
<g id="edge10" class="edge">
<title>0x117b5c0&#45;&gt;0x117b770</title>
<path fill="none" stroke="black" d="M2594.34,-85.56C2599.43,-84.56 2604.5,-83.56 2609.52,-82.57"/>
<polygon fill="black" stroke="black" points="2593.4,-82.18 2584.26,-87.54 2594.75,-89.04 2593.4,-82.18"/>
<polygon fill="black" stroke="black" points="2610.59,-85.93 2619.72,-80.57 2609.23,-79.06 2610.59,-85.93"/>
</g>
<!-- 0x117b770&#45;&gt;0x11713a0 -->
<g id="edge11" class="edge">
<title>0x117b770&#45;&gt;0x11713a0</title>
<path fill="none" stroke="black" d="M2609.92,-41.23C2601.19,-39.6 2592.46,-38.15 2584,-37 2415.79,-14.06 2372.27,-18 2202.5,-18 677.5,-18 677.5,-18 677.5,-18 503.74,-18 459.76,-18.33 287,-37 278.53,-37.92 269.83,-38.99 261.07,-40.17"/>
<polygon fill="black" stroke="black" points="2609.28,-44.67 2619.76,-43.14 2610.61,-37.8 2609.28,-44.67"/>
<polygon fill="black" stroke="black" points="260.58,-36.71 251.16,-41.55 261.55,-43.64 260.58,-36.71"/>
</g>
</g>
</svg>
