<?xml version="1.0" encoding="UTF-8" standalone="no"?>
<!DOCTYPE svg PUBLIC "-//W3C//DTD SVG 1.1//EN"
 "http://www.w3.org/Graphics/SVG/1.1/DTD/svg11.dtd">
<!-- Generated by graphviz version 2.47.2 (20210527.0053)
 -->
<!-- Title: G Pages: 1 -->
<svg width="2610pt" height="182pt"
 viewBox="0.00 0.00 2610.00 182.00" xmlns="http://www.w3.org/2000/svg" xmlns:xlink="http://www.w3.org/1999/xlink">
<g id="graph0" class="graph" transform="scale(1 1) rotate(0) translate(4 178)">
<title>G</title>
<polygon fill="white" stroke="transparent" points="-4,4 -4,-178 2606,-178 2606,4 -4,4"/>
<!-- 0x1297280 -->
<g id="node1" class="node">
<title>0x1297280</title>
<polygon fill="none" stroke="black" points="251,-128 0,-128 0,0 251,0 251,-128"/>
<text text-anchor="middle" x="125.5" y="-112.8" font-family="Times New Roman,serif" font-size="14.00"> Carnet: 201700886</text>
<text text-anchor="middle" x="125.5" y="-97.8" font-family="Times New Roman,serif" font-size="14.00">DPI: 3502451230508</text>
<text text-anchor="middle" x="125.5" y="-82.8" font-family="Times New Roman,serif" font-size="14.00">Nombre: Emilia Miramontes</text>
<text text-anchor="middle" x="125.5" y="-67.8" font-family="Times New Roman,serif" font-size="14.00">Carrera: Ingeniería en Ciencias y Sistemas</text>
<text text-anchor="middle" x="125.5" y="-52.8" font-family="Times New Roman,serif" font-size="14.00">Correo: nicols36@hotmail.com</text>
<text text-anchor="middle" x="125.5" y="-37.8" font-family="Times New Roman,serif" font-size="14.00">Pass: roxodiciqi</text>
<text text-anchor="middle" x="125.5" y="-22.8" font-family="Times New Roman,serif" font-size="14.00">Creditos: 205</text>
<text text-anchor="middle" x="125.5" y="-7.8" font-family="Times New Roman,serif" font-size="14.00">Edad: 21</text>
</g>
<!-- 0x12904b0 -->
<g id="node2" class="node">
<title>0x12904b0</title>
<polygon fill="none" stroke="black" points="521,-174 287,-174 287,-46 521,-46 521,-174"/>
<text text-anchor="middle" x="404" y="-158.8" font-family="Times New Roman,serif" font-size="14.00"> Carnet: 201501786</text>
<text text-anchor="middle" x="404" y="-143.8" font-family="Times New Roman,serif" font-size="14.00">DPI: 7249529279753</text>
<text text-anchor="middle" x="404" y="-128.8" font-family="Times New Roman,serif" font-size="14.00">Nombre: Tomas ixen</text>
<text text-anchor="middle" x="404" y="-113.8" font-family="Times New Roman,serif" font-size="14.00">Carrera: Ingeniería Industrial</text>
<text text-anchor="middle" x="404" y="-98.8" font-family="Times New Roman,serif" font-size="14.00">Correo: jernimo.caballero@yahoo.com</text>
<text text-anchor="middle" x="404" y="-83.8" font-family="Times New Roman,serif" font-size="14.00">Pass: zanolexima</text>
<text text-anchor="middle" x="404" y="-68.8" font-family="Times New Roman,serif" font-size="14.00">Creditos: 245</text>
<text text-anchor="middle" x="404" y="-53.8" font-family="Times New Roman,serif" font-size="14.00">Edad: 24</text>
</g>
<!-- 0x1297280&#45;&gt;0x12904b0 -->
<g id="edge1" class="edge">
<title>0x1297280&#45;&gt;0x12904b0</title>
<path fill="none" stroke="black" d="M261.33,-86.43C266.36,-87.27 271.39,-88.1 276.4,-88.94"/>
<polygon fill="black" stroke="black" points="261.84,-82.97 251.4,-84.78 260.69,-89.87 261.84,-82.97"/>
<polygon fill="black" stroke="black" points="276.22,-92.46 286.65,-90.64 277.36,-85.55 276.22,-92.46"/>
</g>
<!-- 0x1297438 -->
<g id="node3" class="node">
<title>0x1297438</title>
<polygon fill="none" stroke="black" points="800,-174 557,-174 557,-46 800,-46 800,-174"/>
<text text-anchor="middle" x="678.5" y="-158.8" font-family="Times New Roman,serif" font-size="14.00"> Carnet: 201822186</text>
<text text-anchor="middle" x="678.5" y="-143.8" font-family="Times New Roman,serif" font-size="14.00">DPI: 9298434863898</text>
<text text-anchor="middle" x="678.5" y="-128.8" font-family="Times New Roman,serif" font-size="14.00">Nombre: Eloisa Rincón</text>
<text text-anchor="middle" x="678.5" y="-113.8" font-family="Times New Roman,serif" font-size="14.00">Carrera: Ingeniería Civil</text>
<text text-anchor="middle" x="678.5" y="-98.8" font-family="Times New Roman,serif" font-size="14.00">Correo: carolinaelizondo85@yahoo.com</text>
<text text-anchor="middle" x="678.5" y="-83.8" font-family="Times New Roman,serif" font-size="14.00">Pass: toqelijanu</text>
<text text-anchor="middle" x="678.5" y="-68.8" font-family="Times New Roman,serif" font-size="14.00">Creditos: 95</text>
<text text-anchor="middle" x="678.5" y="-53.8" font-family="Times New Roman,serif" font-size="14.00">Edad: 19</text>
</g>
<!-- 0x12904b0&#45;&gt;0x1297438 -->
<g id="edge2" class="edge">
<title>0x12904b0&#45;&gt;0x1297438</title>
<path fill="none" stroke="black" d="M531.56,-110C536.54,-110 541.54,-110 546.53,-110"/>
<polygon fill="black" stroke="black" points="531.35,-106.5 521.35,-110 531.35,-113.5 531.35,-106.5"/>
<polygon fill="black" stroke="black" points="546.75,-113.5 556.75,-110 546.75,-106.5 546.75,-113.5"/>
</g>
<!-- 0x12904d0 -->
<g id="node4" class="node">
<title>0x12904d0</title>
<polygon fill="none" stroke="black" points="1036,-174 836,-174 836,-46 1036,-46 1036,-174"/>
<text text-anchor="middle" x="936" y="-158.8" font-family="Times New Roman,serif" font-size="14.00"> Carnet: 201901425</text>
<text text-anchor="middle" x="936" y="-143.8" font-family="Times New Roman,serif" font-size="14.00">DPI: 4131766125532</text>
<text text-anchor="middle" x="936" y="-128.8" font-family="Times New Roman,serif" font-size="14.00">Nombre: Bernardo Hinojosa</text>
<text text-anchor="middle" x="936" y="-113.8" font-family="Times New Roman,serif" font-size="14.00">Carrera: Ingeniería Mecánica</text>
<text text-anchor="middle" x="936" y="-98.8" font-family="Times New Roman,serif" font-size="14.00">Correo: alfonso03@hotmail.com</text>
<text text-anchor="middle" x="936" y="-83.8" font-family="Times New Roman,serif" font-size="14.00">Pass: wosopumano</text>
<text text-anchor="middle" x="936" y="-68.8" font-family="Times New Roman,serif" font-size="14.00">Creditos: 100</text>
<text text-anchor="middle" x="936" y="-53.8" font-family="Times New Roman,serif" font-size="14.00">Edad: 20</text>
</g>
<!-- 0x1297438&#45;&gt;0x12904d0 -->
<g id="edge3" class="edge">
<title>0x1297438&#45;&gt;0x12904d0</title>
<path fill="none" stroke="black" d="M810.18,-110C815.26,-110 820.33,-110 825.37,-110"/>
<polygon fill="black" stroke="black" points="810.14,-106.5 800.14,-110 810.14,-113.5 810.14,-106.5"/>
<polygon fill="black" stroke="black" points="825.64,-113.5 835.64,-110 825.64,-106.5 825.64,-113.5"/>
</g>
<!-- 0x12976e8 -->
<g id="node5" class="node">
<title>0x12976e8</title>
<polygon fill="none" stroke="black" points="1287,-174 1072,-174 1072,-46 1287,-46 1287,-174"/>
<text text-anchor="middle" x="1179.5" y="-158.8" font-family="Times New Roman,serif" font-size="14.00"> Carnet: 201503186</text>
<text text-anchor="middle" x="1179.5" y="-143.8" font-family="Times New Roman,serif" font-size="14.00">DPI: 8549191766348</text>
<text text-anchor="middle" x="1179.5" y="-128.8" font-family="Times New Roman,serif" font-size="14.00">Nombre: Manuel Manzanares</text>
<text text-anchor="middle" x="1179.5" y="-113.8" font-family="Times New Roman,serif" font-size="14.00">Carrera: Ingeniería Eléctrica</text>
<text text-anchor="middle" x="1179.5" y="-98.8" font-family="Times New Roman,serif" font-size="14.00">Correo: benitoarmas92@gmail.com</text>
<text text-anchor="middle" x="1179.5" y="-83.8" font-family="Times New Roman,serif" font-size="14.00">Pass: rejumudore</text>
<text text-anchor="middle" x="1179.5" y="-68.8" font-family="Times New Roman,serif" font-size="14.00">Creditos: 226</text>
<text text-anchor="middle" x="1179.5" y="-53.8" font-family="Times New Roman,serif" font-size="14.00">Edad: 24</text>
</g>
<!-- 0x12904d0&#45;&gt;0x12976e8 -->
<g id="edge4" class="edge">
<title>0x12904d0&#45;&gt;0x12976e8</title>
<path fill="none" stroke="black" d="M1046.49,-110C1051.48,-110 1056.5,-110 1061.51,-110"/>
<polygon fill="black" stroke="black" points="1046.27,-106.5 1036.27,-110 1046.27,-113.5 1046.27,-106.5"/>
<polygon fill="black" stroke="black" points="1061.77,-113.5 1071.77,-110 1061.77,-106.5 1061.77,-113.5"/>
</g>
<!-- 0x1297570 -->
<g id="node6" class="node">
<title>0x1297570</title>
<polygon fill="none" stroke="black" points="1547,-174 1323,-174 1323,-46 1547,-46 1547,-174"/>
<text text-anchor="middle" x="1435" y="-158.8" font-family="Times New Roman,serif" font-size="14.00"> Carnet: 201123146</text>
<text text-anchor="middle" x="1435" y="-143.8" font-family="Times New Roman,serif" font-size="14.00">DPI: 9616636196552</text>
<text text-anchor="middle" x="1435" y="-128.8" font-family="Times New Roman,serif" font-size="14.00">Nombre: Julia Corona</text>
<text text-anchor="middle" x="1435" y="-113.8" font-family="Times New Roman,serif" font-size="14.00">Carrera: Ingeniería Electrónica</text>
<text text-anchor="middle" x="1435" y="-98.8" font-family="Times New Roman,serif" font-size="14.00">Correo: ngela.solorio86@yahoo.com</text>
<text text-anchor="middle" x="1435" y="-83.8" font-family="Times New Roman,serif" font-size="14.00">Pass: xojobavuji</text>
<text text-anchor="middle" x="1435" y="-68.8" font-family="Times New Roman,serif" font-size="14.00">Creditos: 237</text>
<text text-anchor="middle" x="1435" y="-53.8" font-family="Times New Roman,serif" font-size="14.00">Edad: 26</text>
</g>
<!-- 0x12976e8&#45;&gt;0x1297570 -->
<g id="edge5" class="edge">
<title>0x12976e8&#45;&gt;0x1297570</title>
<path fill="none" stroke="black" d="M1297.53,-110C1302.54,-110 1307.57,-110 1312.6,-110"/>
<polygon fill="black" stroke="black" points="1297.27,-106.5 1287.27,-110 1297.27,-113.5 1297.27,-106.5"/>
<polygon fill="black" stroke="black" points="1312.88,-113.5 1322.88,-110 1312.88,-106.5 1312.88,-113.5"/>
</g>
<!-- 0x1297590 -->
<g id="node7" class="node">
<title>0x1297590</title>
<polygon fill="none" stroke="black" points="1832,-174 1583,-174 1583,-46 1832,-46 1832,-174"/>
<text text-anchor="middle" x="1707.5" y="-158.8" font-family="Times New Roman,serif" font-size="14.00"> Carnet: 201704186</text>
<text text-anchor="middle" x="1707.5" y="-143.8" font-family="Times New Roman,serif" font-size="14.00">DPI: 4778315315575</text>
<text text-anchor="middle" x="1707.5" y="-128.8" font-family="Times New Roman,serif" font-size="14.00">Nombre: Berta Carrasco</text>
<text text-anchor="middle" x="1707.5" y="-113.8" font-family="Times New Roman,serif" font-size="14.00">Carrera: Ingeniería Ambiental</text>
<text text-anchor="middle" x="1707.5" y="-98.8" font-family="Times New Roman,serif" font-size="14.00">Correo: carmen.montenegro@yahoo.com</text>
<text text-anchor="middle" x="1707.5" y="-83.8" font-family="Times New Roman,serif" font-size="14.00">Pass: gayahizatu</text>
<text text-anchor="middle" x="1707.5" y="-68.8" font-family="Times New Roman,serif" font-size="14.00">Creditos: 210</text>
<text text-anchor="middle" x="1707.5" y="-53.8" font-family="Times New Roman,serif" font-size="14.00">Edad: 22</text>
</g>
<!-- 0x1297570&#45;&gt;0x1297590 -->
<g id="edge6" class="edge">
<title>0x1297570&#45;&gt;0x1297590</title>
<path fill="none" stroke="black" d="M1557.2,-110C1562.42,-110 1567.67,-110 1572.91,-110"/>
<polygon fill="black" stroke="black" points="1557.19,-106.5 1547.19,-110 1557.19,-113.5 1557.19,-106.5"/>
<polygon fill="black" stroke="black" points="1572.99,-113.5 1582.99,-110 1572.99,-106.5 1572.99,-113.5"/>
</g>
<!-- 0x129b548 -->
<g id="node8" class="node">
<title>0x129b548</title>
<polygon fill="none" stroke="black" points="2055,-174 1868,-174 1868,-46 2055,-46 2055,-174"/>
<text text-anchor="middle" x="1961.5" y="-158.8" font-family="Times New Roman,serif" font-size="14.00"> Carnet: 202000786</text>
<text text-anchor="middle" x="1961.5" y="-143.8" font-family="Times New Roman,serif" font-size="14.00">DPI: 7382344774121</text>
<text text-anchor="middle" x="1961.5" y="-128.8" font-family="Times New Roman,serif" font-size="14.00">Nombre: Lola Delapaz</text>
<text text-anchor="middle" x="1961.5" y="-113.8" font-family="Times New Roman,serif" font-size="14.00">Carrera: Ingeniería Química</text>
<text text-anchor="middle" x="1961.5" y="-98.8" font-family="Times New Roman,serif" font-size="14.00">Correo: adriana56@gmail.com</text>
<text text-anchor="middle" x="1961.5" y="-83.8" font-family="Times New Roman,serif" font-size="14.00">Pass: hujocikimi</text>
<text text-anchor="middle" x="1961.5" y="-68.8" font-family="Times New Roman,serif" font-size="14.00">Creditos: 45</text>
<text text-anchor="middle" x="1961.5" y="-53.8" font-family="Times New Roman,serif" font-size="14.00">Edad: 19</text>
</g>
<!-- 0x1297590&#45;&gt;0x129b548 -->
<g id="edge7" class="edge">
<title>0x1297590&#45;&gt;0x129b548</title>
<path fill="none" stroke="black" d="M1842.36,-110C1847.46,-110 1852.53,-110 1857.55,-110"/>
<polygon fill="black" stroke="black" points="1842.29,-106.5 1832.29,-110 1842.29,-113.5 1842.29,-106.5"/>
<polygon fill="black" stroke="black" points="1857.78,-113.5 1867.78,-110 1857.78,-106.5 1857.78,-113.5"/>
</g>
<!-- 0x129b5a8 -->
<g id="node9" class="node">
<title>0x129b5a8</title>
<polygon fill="none" stroke="black" points="2336,-174 2091,-174 2091,-46 2336,-46 2336,-174"/>
<text text-anchor="middle" x="2213.5" y="-158.8" font-family="Times New Roman,serif" font-size="14.00"> Carnet: 201611446</text>
<text text-anchor="middle" x="2213.5" y="-143.8" font-family="Times New Roman,serif" font-size="14.00">DPI: 2511893949443</text>
<text text-anchor="middle" x="2213.5" y="-128.8" font-family="Times New Roman,serif" font-size="14.00">Nombre: Sonia Arteaga</text>
<text text-anchor="middle" x="2213.5" y="-113.8" font-family="Times New Roman,serif" font-size="14.00">Carrera: Ingeniería Mecánica Industrial</text>
<text text-anchor="middle" x="2213.5" y="-98.8" font-family="Times New Roman,serif" font-size="14.00">Correo: esperanza.meza41@hotmail.com</text>
<text text-anchor="middle" x="2213.5" y="-83.8" font-family="Times New Roman,serif" font-size="14.00">Pass: rezutafila</text>
<text text-anchor="middle" x="2213.5" y="-68.8" font-family="Times New Roman,serif" font-size="14.00">Creditos: 195</text>
<text text-anchor="middle" x="2213.5" y="-53.8" font-family="Times New Roman,serif" font-size="14.00">Edad: 23</text>
</g>
<!-- 0x129b548&#45;&gt;0x129b5a8 -->
<g id="edge8" class="edge">
<title>0x129b548&#45;&gt;0x129b5a8</title>
<path fill="none" stroke="black" d="M2065.33,-110C2070.27,-110 2075.27,-110 2080.29,-110"/>
<polygon fill="black" stroke="black" points="2065.24,-106.5 2055.24,-110 2065.24,-113.5 2065.24,-106.5"/>
<polygon fill="black" stroke="black" points="2080.59,-113.5 2090.59,-110 2080.59,-106.5 2080.59,-113.5"/>
</g>
<!-- 0x129b7e8 -->
<g id="node10" class="node">
<title>0x129b7e8</title>
<polygon fill="none" stroke="black" points="2602,-128 2372,-128 2372,0 2602,0 2602,-128"/>
<text text-anchor="middle" x="2487" y="-112.8" font-family="Times New Roman,serif" font-size="14.00">Carnet: 201819852</text>
<text text-anchor="middle" x="2487" y="-97.8" font-family="Times New Roman,serif" font-size="14.00">DPI: 3423442386382</text>
<text text-anchor="middle" x="2487" y="-82.8" font-family="Times New Roman,serif" font-size="14.00">Nombre: Benjamín Asencio</text>
<text text-anchor="middle" x="2487" y="-67.8" font-family="Times New Roman,serif" font-size="14.00">Carrera: Ingeniería Mecánica Eléctrica</text>
<text text-anchor="middle" x="2487" y="-52.8" font-family="Times New Roman,serif" font-size="14.00">Correo: horacio.tejada15@yahoo.com</text>
<text text-anchor="middle" x="2487" y="-37.8" font-family="Times New Roman,serif" font-size="14.00">Pass: runoqozepo</text>
<text text-anchor="middle" x="2487" y="-22.8" font-family="Times New Roman,serif" font-size="14.00">Creditos: 117</text>
<text text-anchor="middle" x="2487" y="-7.8" font-family="Times New Roman,serif" font-size="14.00">Edad: 20</text>
</g>
<!-- 0x129b5a8&#45;&gt;0x129b7e8 -->
<g id="edge9" class="edge">
<title>0x129b5a8&#45;&gt;0x129b7e8</title>
<path fill="none" stroke="black" d="M2346.37,-87.66C2351.58,-86.78 2356.79,-85.89 2361.99,-85.01"/>
<polygon fill="black" stroke="black" points="2345.63,-84.23 2336.35,-89.35 2346.8,-91.13 2345.63,-84.23"/>
<polygon fill="black" stroke="black" points="2362.66,-88.45 2371.94,-83.33 2361.49,-81.55 2362.66,-88.45"/>
</g>
<!-- 0x129b7e8&#45;&gt;0x1297280 -->
<g id="edge10" class="edge">
<title>0x129b7e8&#45;&gt;0x1297280</title>
<path fill="none" stroke="black" d="M2362.04,-40.42C2353.24,-39.14 2344.5,-37.98 2336,-37 2170.87,-18.02 2128.71,-18 1962.5,-18 677.5,-18 677.5,-18 677.5,-18 503.74,-18 459.76,-18.33 287,-37 278.53,-37.92 269.83,-38.99 261.07,-40.17"/>
<polygon fill="black" stroke="black" points="2361.57,-43.89 2371.97,-41.92 2362.61,-36.97 2361.57,-43.89"/>
<polygon fill="black" stroke="black" points="260.58,-36.71 251.16,-41.55 261.55,-43.64 260.58,-36.71"/>
</g>
</g>
</svg>
